<svg viewBox="0 0 604 540" fill="none" xmlns="http://www.w3.org/2000/svg">
  <path fill="#fff" d="M0 0h604v540H0z" />
  <mask id="a" fill="#fff">
    <path fill-rule="evenodd" clip-rule="evenodd"
      d="M344.876 70.9 336.674 56l-34.733 63.102L288.674 95l-9.968 18.11L251.674 64l-17.5 31.793L216.674 64l-25.729 46.744L175.674 83 96 227.75h119.605l-6.605 12h111.908l-9.908 18h159.349l-1.652-3h39.652L428.674 110l-19.825 36.019L390.674 113l-7.514 13.652L348.674 64l-3.798 6.9Z" />
  </mask>
  <path fill-rule="evenodd" clip-rule="evenodd"
    d="M344.876 70.9 336.674 56l-34.733 63.102L288.674 95l-9.968 18.11L251.674 64l-17.5 31.793L216.674 64l-25.729 46.744L175.674 83 96 227.75h119.605l-6.605 12h111.908l-9.908 18h159.349l-1.652-3h39.652L428.674 110l-19.825 36.019L390.674 113l-7.514 13.652L348.674 64l-3.798 6.9Z"
    fill="#D9D9D9" />
  <path
    d="m336.674 56 4.381-2.411-4.381-7.958-4.38 7.958 4.38 2.411Zm8.202 14.9-4.38 2.412 4.38 7.958 4.38-7.958-4.38-2.411Zm-42.935 48.202-4.38 2.412 4.38 7.958 4.38-7.958-4.38-2.412ZM288.674 95l4.381-2.411-4.381-7.958-4.38 7.958 4.38 2.411Zm-9.968 18.11-4.38 2.411 4.38 7.958 4.38-7.958-4.38-2.411ZM251.674 64l4.381-2.411-4.381-7.958-4.38 7.958 4.38 2.411Zm-17.5 31.793-4.38 2.411 4.38 7.958 4.381-7.958-4.381-2.41ZM216.674 64l4.381-2.411-4.381-7.958-4.38 7.958 4.38 2.411Zm-25.729 46.744-4.38 2.411 4.38 7.958 4.381-7.958-4.381-2.411ZM175.674 83l4.381-2.411-4.381-7.958-4.38 7.958 4.38 2.411ZM96 227.75l-4.38-2.411-4.08 7.411H96v-5Zm119.605 0 4.38 2.411 4.08-7.411h-8.46v5Zm-6.605 12-4.38-2.411-4.08 7.411H209v-5Zm111.908 0 4.38 2.411 4.079-7.411h-8.459v5Zm-9.908 18-4.38-2.411-4.08 7.411H311v-5Zm159.349 0v5h8.459l-4.079-7.411-4.38 2.411Zm-1.652-3v-5h-8.459l4.079 7.411 4.38-2.411Zm39.652 0v5h8.459l-4.079-7.411-4.38 2.411ZM428.674 110l4.381-2.411-4.381-7.958-4.38 7.958 4.38 2.411Zm-19.825 36.019-4.381 2.411 4.381 7.958 4.38-7.958-4.38-2.411ZM390.674 113l4.381-2.411-4.381-7.958-4.38 7.958 4.38 2.411Zm-7.514 13.652-4.38 2.411 4.38 7.958 4.38-7.958-4.38-2.411ZM348.674 64l4.381-2.411-4.381-7.958-4.38 7.958 4.38 2.411Zm-16.38-5.589 8.202 14.9 8.76-4.821-8.201-14.901-8.761 4.822Zm-25.973 63.103 34.734-63.103-8.761-4.822-34.733 63.102 8.76 4.823Zm-22.027-24.103 13.267 24.103 8.76-4.823-13.266-24.102-8.761 4.822Zm-1.208 18.11 9.969-18.11-8.761-4.822-9.968 18.11 8.76 4.822Zm-35.792-49.11 27.032 49.11 8.76-4.822-27.031-49.11-8.761 4.822Zm-8.739 31.793 17.5-31.793-8.761-4.822-17.5 31.793 8.761 4.822Zm-26.261-31.793 17.5 31.793 8.761-4.822-17.5-31.793-8.761 4.822Zm-16.968 46.744 25.729-46.744-8.761-4.822-25.729 46.744 8.761 4.822Zm-24.032-27.744 15.271 27.744 8.761-4.822-15.271-27.744-8.761 4.822Zm-70.914 144.75 79.675-144.75-8.761-4.822-79.674 144.75 8.76 4.822Zm115.225-7.411H96v10h119.605v-10Zm-2.225 19.411 6.605-12-8.76-4.822-6.605 12 8.76 4.822Zm107.528-7.411H209v10h111.908v-10Zm-5.528 25.411 9.908-18-8.761-4.822-9.907 18 8.76 4.822Zm154.969-7.411H311v10h159.349v-10Zm-6.032 4.411 1.651 3 8.761-4.822-1.651-3-8.761 4.822Zm44.032-7.411h-39.652v10h39.652v-10Zm-84.055-137.339 79.674 144.75 8.761-4.822-79.674-144.75-8.761 4.822Zm-11.065 36.019 19.826-36.019-8.761-4.822-19.826 36.019 8.761 4.822Zm-26.935-33.019 18.174 33.019 8.761-4.822-18.174-33.019-8.761 4.822Zm1.246 13.652 7.515-13.652-8.761-4.822-7.514 13.652 8.76 4.822Zm-43.246-62.652 34.486 62.652 8.76-4.822-34.485-62.652-8.761 4.822Zm4.962 6.9 3.799-6.9-8.761-4.822-3.798 6.9 8.76 4.823Z"
    fill="#7BC3C2" mask="url(#a)" />
  <g filter="url(#b)">
    <ellipse cx="288" cy="346.5" rx="275" ry="174.5" fill="#ED7A3C" />
    <path
      d="M560.5 346.5c0 47.032-30.048 89.973-79.385 121.279C431.808 499.067 363.538 518.5 288 518.5c-75.538 0-143.808-19.433-193.115-50.721C45.548 436.473 15.5 393.532 15.5 346.5s30.048-89.973 79.385-121.279C144.192 193.933 212.462 174.5 288 174.5c75.538 0 143.808 19.433 193.115 50.721C530.452 256.527 560.5 299.468 560.5 346.5Z"
      stroke="#7BC3C2" stroke-width="5" />
  </g>
  <path fill-rule="evenodd" clip-rule="evenodd"
    d="m397.249 155 47.631 225h-95.263l47.632-225Zm98 4 28.579 165h-24.579v61h-9v-61H466.67l28.579-165Zm-398 161h9v62h-9v-62Zm31.248-1.75L104.249 172 80 318.25h48.497Z"
    fill="green" />
  <ellipse cx="203" cy="200" rx="29" ry="28" fill="#FF0" />
  <path d="M150 258h210.851L427 388H216.149L150 258Z" fill="#898277" />
  <path d="M357 258H146.149L80 388h210.851L357 258Z" fill="#B8AD98" />
  <path d="M195.5 290h67L241 328.5h-67l21.5-38.5Z" fill="#D9D9D9" />
  <path d="M355.335 290c2.314 63.129-2.852 82.858-20.335 98h41.663c5.369-42.926-6.177-61.686-21.328-98Z" fill="#fff"
    stroke="gray" />
  <path fill="#B95825" d="m430.792 427.598 1.652 6.802-47.617 11.562-1.652-6.802z" />
  <path
    d="M456.121 415.19c.124 6.588-.655 11.944-15.539 12.224-14.885.28-.101-5.34-.225-11.927-.124-6.588 15.54-12.224 15.255-27.363 14.885-.28.385 20.479.509 27.066Z"
    fill="#D9D9D9" />
  <path fill="#B95825" d="m425.316 444.402-2.981 6.334L378 429.868l2.981-6.333z" />
  <path fill="#B95825" d="m411.215 458.944-6.99.37-2.587-48.932 6.99-.37z" />
  <defs>
    <filter id="b" x="9" y="172" width="558" height="357" filterUnits="userSpaceOnUse"
      color-interpolation-filters="sRGB">
      <feFlood flood-opacity="0" result="BackgroundImageFix" />
      <feColorMatrix in="SourceAlpha" values="0 0 0 0 0 0 0 0 0 0 0 0 0 0 0 0 0 0 127 0" result="hardAlpha" />
      <feOffset dy="4" />
      <feGaussianBlur stdDeviation="2" />
      <feComposite in2="hardAlpha" operator="out" />
      <feColorMatrix values="0 0 0 0 0 0 0 0 0 0 0 0 0 0 0 0 0 0 0.25 0" />
      <feBlend in2="BackgroundImageFix" result="effect1_dropShadow_1_3" />
      <feBlend in="SourceGraphic" in2="effect1_dropShadow_1_3" result="shape" />
    </filter>
  </defs>
</svg>