<svg viewBox="0 0 706 804" fill="none" xmlns="http://www.w3.org/2000/svg">
  <path fill="#fff" d="M0 0h706v804H0z"/>
  <mask id="a" fill="#fff">
    <path fill-rule="evenodd" clip-rule="evenodd" d="M333.876 135.901 325.674 121l-34.733 63.102L277.674 160l-9.968 18.11L240.674 129l-17.5 31.793-17.5-31.793-25.729 46.744L164.674 148 85 292.75h119.605l-6.605 12h111.908l-9.908 18h60.83l-5.504 10h159.348L435 188l-24.911 45.257L379.674 178l-7.514 13.652L337.674 129l-3.798 6.901Z"/>
  </mask>
  <path fill-rule="evenodd" clip-rule="evenodd" d="M333.876 135.901 325.674 121l-34.733 63.102L277.674 160l-9.968 18.11L240.674 129l-17.5 31.793-17.5-31.793-25.729 46.744L164.674 148 85 292.75h119.605l-6.605 12h111.908l-9.908 18h60.83l-5.504 10h159.348L435 188l-24.911 45.257L379.674 178l-7.514 13.652L337.674 129l-3.798 6.901Z" fill="#000"/>
  <path d="m325.674 121 4.381-2.411-4.381-7.958-4.38 7.958 4.38 2.411Zm8.202 14.901-4.38 2.411 4.38 7.958 4.38-7.958-4.38-2.411Zm-42.935 48.201-4.38 2.412 4.38 7.958 4.38-7.958-4.38-2.412ZM277.674 160l4.381-2.411-4.381-7.958-4.38 7.958 4.38 2.411Zm-9.968 18.11-4.38 2.411 4.38 7.958 4.38-7.958-4.38-2.411ZM240.674 129l4.381-2.411-4.381-7.958-4.38 7.958 4.38 2.411Zm-17.5 31.793-4.38 2.412 4.38 7.957 4.381-7.957-4.381-2.412ZM205.674 129l4.381-2.411-4.381-7.958-4.38 7.958 4.38 2.411Zm-25.729 46.744-4.38 2.411 4.38 7.958 4.381-7.958-4.381-2.411ZM164.674 148l4.381-2.411-4.381-7.958-4.38 7.958 4.38 2.411ZM85 292.75l-4.38-2.411-4.08 7.411H85v-5Zm119.605 0 4.38 2.411 4.08-7.411h-8.46v5Zm-6.605 12-4.38-2.411-4.08 7.411H198v-5Zm111.908 0 4.38 2.411 4.079-7.411h-8.459v5Zm-9.908 18-4.38-2.411-4.08 7.411H300v-5Zm60.83 0 4.38 2.411 4.079-7.411h-8.459v5Zm-5.504 10-4.381-2.411-4.079 7.411h8.46v-5Zm159.348 0v5h8.46l-4.079-7.411-4.381 2.411ZM435 188l4.38-2.411-4.38-7.958-4.38 7.958L435 188Zm-24.911 45.257-4.38 2.411 4.38 7.958 4.381-7.958-4.381-2.411ZM379.674 178l4.381-2.411-4.381-7.958-4.38 7.958 4.38 2.411Zm-7.514 13.652-4.38 2.411 4.38 7.958 4.38-7.958-4.38-2.411ZM337.674 129l4.381-2.411-4.381-7.958-4.38 7.958 4.38 2.411Zm-16.38-5.589 8.202 14.901 8.76-4.822-8.201-14.901-8.761 4.822Zm-25.973 63.103 34.734-63.103-8.761-4.822-34.733 63.102 8.76 4.823Zm-22.027-24.103 13.267 24.103 8.76-4.823-13.266-24.102-8.761 4.822Zm-1.208 18.11 9.969-18.11-8.761-4.822-9.968 18.11 8.76 4.822Zm-35.792-49.11 27.032 49.11 8.76-4.822-27.031-49.11-8.761 4.822Zm-8.739 31.794 17.5-31.794-8.761-4.822-17.5 31.793 8.761 4.823Zm-26.261-31.794 17.5 31.794 8.761-4.823-17.5-31.793-8.761 4.822Zm-16.968 46.744 25.729-46.744-8.761-4.822-25.729 46.744 8.761 4.822Zm-24.032-27.744 15.271 27.744 8.761-4.822-15.271-27.744-8.761 4.822ZM89.38 295.161l79.675-144.75-8.761-4.822-79.674 144.75 8.76 4.822Zm115.225-7.411H85v10h119.605v-10Zm-2.225 19.411 6.605-12-8.76-4.822-6.605 12 8.76 4.822Zm107.528-7.411H198v10h111.908v-10Zm-5.528 25.411 9.908-18-8.761-4.822-9.907 18 8.76 4.822Zm56.45-7.411H300v10h60.83v-10Zm-1.124 17.411 5.504-10-8.76-4.822-5.505 10 8.761 4.822Zm154.968-7.411H355.326v10h159.348v-10ZM430.62 190.411l79.674 144.75 8.761-4.822-79.675-144.75-8.76 4.822Zm-16.15 45.257 24.91-45.257-8.76-4.822-24.911 45.257 8.761 4.822Zm-39.176-55.257 30.415 55.257 8.761-4.822-30.415-55.257-8.761 4.822Zm1.246 13.652 7.515-13.652-8.761-4.822-7.514 13.652 8.76 4.822Zm-43.246-62.652 34.486 62.652 8.76-4.822-34.485-62.652-8.761 4.822Zm4.962 6.901 3.799-6.901-8.761-4.822-3.798 6.901 8.76 4.822Z" fill="#000" mask="url(#a)"/>
  <g filter="url(#b)">
    <ellipse cx="300" cy="401.5" rx="275" ry="174.5" fill="#fff"/>
    <path d="M572.5 401.5c0 47.032-30.048 89.973-79.385 121.279C443.808 554.067 375.538 573.5 300 573.5c-75.538 0-143.808-19.433-193.115-50.721C57.548 491.473 27.5 448.532 27.5 401.5s30.048-89.973 79.385-121.279C156.192 248.933 224.462 229.5 300 229.5c75.538 0 143.808 19.433 193.115 50.721C542.452 311.527 572.5 354.468 572.5 401.5Z" stroke="#000" stroke-width="5"/>
  </g>
  <path fill-rule="evenodd" clip-rule="evenodd" d="m383.249 251 47.631 225h-95.263l47.632-225Zm98 4 28.579 165h-24.579v61h-9v-61H452.67l28.579-165Zm-398 161h9v62h-9v-62Zm31.248-1.75L90.249 268 66 414.25h48.497Z" fill="#000"/>
  <ellipse cx="187" cy="279" rx="29" ry="28" fill="#000"/>
  <path d="M148 351h210.851L425 481H214.149L148 351Z" fill="#000"/>
  <path d="M355 351H144.149L78 481h210.851L355 351Z" fill="#000"/>
  <path d="M193.5 387h67L239 425.5h-67l21.5-38.5Z" fill="#fff"/>
  <path d="M354.335 383c2.314 63.129-2.852 82.858-20.335 98h41.663c5.369-42.926-6.177-61.686-21.328-98Z" fill="#fff" stroke="gray"/>
  <path fill="#000" d="m477.792 510.598 1.652 6.802-47.617 11.562-1.652-6.802zM503.121 498.19c.124 6.588-.655 11.944-15.539 12.224-14.885.28-.101-5.34-.225-11.927-.124-6.588 15.54-12.224 15.255-27.363 14.885-.28.385 20.479.509 27.066Z"/>
  <path fill="#000" d="m472.316 527.402-2.981 6.334L425 512.868l2.981-6.333z"/>
  <path fill="#000" d="m458.215 541.944-6.99.37-2.587-48.932 6.99-.37z"/>
  <defs>
    <filter id="b" x="21" y="227" width="558" height="357" filterUnits="userSpaceOnUse" color-interpolation-filters="sRGB">
      <feFlood flood-opacity="0" result="BackgroundImageFix"/>
      <feColorMatrix in="SourceAlpha" values="0 0 0 0 0 0 0 0 0 0 0 0 0 0 0 0 0 0 127 0" result="hardAlpha"/>
      <feOffset dy="4"/>
      <feGaussianBlur stdDeviation="2"/>
      <feComposite in2="hardAlpha" operator="out"/>
      <feColorMatrix values="0 0 0 0 0 0 0 0 0 0 0 0 0 0 0 0 0 0 0.25 0"/>
      <feBlend in2="BackgroundImageFix" result="effect1_dropShadow_1_6"/>
      <feBlend in="SourceGraphic" in2="effect1_dropShadow_1_6" result="shape"/>
    </filter>
  </defs>
</svg>
